<svg width="470" height="450" viewBox="0 0 470 450" fill="none" xmlns="http://www.w3.org/2000/svg">
<path d="M11.5234 168.043V324.085" stroke="white" stroke-width="0.671738" stroke-miterlimit="10"/>
<path d="M18.7188 173.398V329.441" stroke="white" stroke-width="0.671738" stroke-miterlimit="10"/>
<path d="M25.9219 178.754V334.796" stroke="white" stroke-width="0.671738" stroke-miterlimit="10"/>
<path d="M33.1172 184.109V340.152" stroke="white" stroke-width="0.671738" stroke-miterlimit="10"/>
<path d="M40.3203 189.465V345.507" stroke="white" stroke-width="0.671738" stroke-miterlimit="10"/>
<path d="M47.5234 194.816V350.859" stroke="white" stroke-width="0.671738" stroke-miterlimit="10"/>
<path d="M54.7188 200.172V356.214" stroke="white" stroke-width="0.671738" stroke-miterlimit="10"/>
<path d="M61.9141 205.531V361.573" stroke="white" stroke-width="0.671738" stroke-miterlimit="10"/>
<path d="M69.1172 210.883V366.925" stroke="white" stroke-width="0.671738" stroke-miterlimit="10"/>
<path d="M76.3164 216.242V372.284" stroke="white" stroke-width="0.671738" stroke-miterlimit="10"/>
<path d="M83.5156 221.594V377.636" stroke="white" stroke-width="0.671738" stroke-miterlimit="10"/>
<path d="M90.7148 226.953V382.995" stroke="white" stroke-width="0.671738" stroke-miterlimit="10"/>
<path d="M97.9141 232.305V388.347" stroke="white" stroke-width="0.671738" stroke-miterlimit="10"/>
<path d="M105.109 237.66V393.702" stroke="white" stroke-width="0.671738" stroke-miterlimit="10"/>
<path d="M112.312 243.016V399.058" stroke="white" stroke-width="0.671738" stroke-miterlimit="10"/>
<path d="M119.508 248.371V404.413" stroke="white" stroke-width="0.671738" stroke-miterlimit="10"/>
<path d="M126.711 253.727V409.769" stroke="white" stroke-width="0.671738" stroke-miterlimit="10"/>
<path d="M133.906 259.082V415.124" stroke="white" stroke-width="0.671738" stroke-miterlimit="10"/>
<path d="M141.105 264.438V420.48" stroke="white" stroke-width="0.671738" stroke-miterlimit="10"/>
<path d="M148.305 269.789V425.831" stroke="white" stroke-width="0.671738" stroke-miterlimit="10"/>
<path d="M155.504 275.148V431.191" stroke="white" stroke-width="0.671738" stroke-miterlimit="10"/>
<path d="M162.703 280.504V436.546" stroke="white" stroke-width="0.671738" stroke-miterlimit="10"/>
<path d="M306.305 12V168.042" stroke="white" stroke-width="0.671738" stroke-miterlimit="10"/>
<path d="M313.5 17.3555V173.398" stroke="white" stroke-width="0.671738" stroke-miterlimit="10"/>
<path d="M320.699 22.7109V178.753" stroke="white" stroke-width="0.671738" stroke-miterlimit="10"/>
<path d="M327.898 28.0625V184.105" stroke="white" stroke-width="0.671738" stroke-miterlimit="10"/>
<path d="M335.102 33.4219V189.464" stroke="white" stroke-width="0.671738" stroke-miterlimit="10"/>
<path d="M342.305 38.7734V194.816" stroke="white" stroke-width="0.671738" stroke-miterlimit="10"/>
<path d="M349.5 44.1328V200.175" stroke="white" stroke-width="0.671738" stroke-miterlimit="10"/>
<path d="M356.695 49.4844V205.527" stroke="white" stroke-width="0.671738" stroke-miterlimit="10"/>
<path d="M363.898 54.8438V210.886" stroke="white" stroke-width="0.671738" stroke-miterlimit="10"/>
<path d="M371.094 60.1953V216.238" stroke="white" stroke-width="0.671738" stroke-miterlimit="10"/>
<path d="M378.297 65.5547V221.597" stroke="white" stroke-width="0.671738" stroke-miterlimit="10"/>
<path d="M385.496 70.9062V226.948" stroke="white" stroke-width="0.671738" stroke-miterlimit="10"/>
<path d="M392.695 76.2617V232.304" stroke="white" stroke-width="0.671738" stroke-miterlimit="10"/>
<path d="M399.891 81.6172V237.659" stroke="white" stroke-width="0.671738" stroke-miterlimit="10"/>
<path d="M407.094 86.9727V243.015" stroke="white" stroke-width="0.671738" stroke-miterlimit="10"/>
<path d="M414.289 92.3281V248.37" stroke="white" stroke-width="0.671738" stroke-miterlimit="10"/>
<path d="M421.492 97.6836V253.726" stroke="white" stroke-width="0.671738" stroke-miterlimit="10"/>
<path d="M428.688 103.039V259.081" stroke="white" stroke-width="0.671738" stroke-miterlimit="10"/>
<path d="M435.887 108.395V264.437" stroke="white" stroke-width="0.671738" stroke-miterlimit="10"/>
<path d="M443.086 113.75V269.792" stroke="white" stroke-width="0.671738" stroke-miterlimit="10"/>
<path d="M450.285 119.102V275.144" stroke="white" stroke-width="0.671738" stroke-miterlimit="10"/>
<path d="M457.484 124.461V280.503" stroke="white" stroke-width="0.671738" stroke-miterlimit="10"/>
<path d="M11.5273 168.051V324.093" stroke="white" stroke-width="0.671738" stroke-miterlimit="10"/>
<path d="M25.5664 160.617V316.659" stroke="white" stroke-width="0.671738" stroke-miterlimit="10"/>
<path d="M39.6016 153.188V309.23" stroke="white" stroke-width="0.671738" stroke-miterlimit="10"/>
<path d="M53.6406 145.758V301.8" stroke="white" stroke-width="0.671738" stroke-miterlimit="10"/>
<path d="M67.6758 138.328V294.37" stroke="white" stroke-width="0.671738" stroke-miterlimit="10"/>
<path d="M81.7109 130.898V286.941" stroke="white" stroke-width="0.671738" stroke-miterlimit="10"/>
<path d="M95.75 123.469V279.511" stroke="white" stroke-width="0.671738" stroke-miterlimit="10"/>
<path d="M109.789 116.035V272.077" stroke="white" stroke-width="0.671738" stroke-miterlimit="10"/>
<path d="M123.828 108.605V264.648" stroke="white" stroke-width="0.671738" stroke-miterlimit="10"/>
<path d="M137.863 101.18V257.222" stroke="white" stroke-width="0.671738" stroke-miterlimit="10"/>
<path d="M151.898 93.7422V249.784" stroke="white" stroke-width="0.671738" stroke-miterlimit="10"/>
<path d="M165.938 86.3125V242.355" stroke="white" stroke-width="0.671738" stroke-miterlimit="10"/>
<path d="M179.973 78.8828V234.925" stroke="white" stroke-width="0.671738" stroke-miterlimit="10"/>
<path d="M194.012 71.4492V227.491" stroke="white" stroke-width="0.671738" stroke-miterlimit="10"/>
<path d="M208.051 64.0234V220.066" stroke="white" stroke-width="0.671738" stroke-miterlimit="10"/>
<path d="M222.086 56.5938V212.636" stroke="white" stroke-width="0.671738" stroke-miterlimit="10"/>
<path d="M236.125 49.1641V205.206" stroke="white" stroke-width="0.671738" stroke-miterlimit="10"/>
<path d="M250.16 41.7266V197.769" stroke="white" stroke-width="0.671738" stroke-miterlimit="10"/>
<path d="M264.195 34.2969V190.339" stroke="white" stroke-width="0.671738" stroke-miterlimit="10"/>
<path d="M278.234 26.8672V182.909" stroke="white" stroke-width="0.671738" stroke-miterlimit="10"/>
<path d="M292.266 19.4375V175.48" stroke="white" stroke-width="0.671738" stroke-miterlimit="10"/>
<path d="M306.305 12.0078V168.05" stroke="white" stroke-width="0.671738" stroke-miterlimit="10"/>
<path d="M87.2969 224.852V380.894" stroke="white" stroke-width="0.671738" stroke-miterlimit="10"/>
<path d="M101.336 217.422V373.464" stroke="white" stroke-width="0.671738" stroke-miterlimit="10"/>
<path d="M115.367 209.992V366.034" stroke="white" stroke-width="0.671738" stroke-miterlimit="10"/>
<path d="M129.406 202.566V358.609" stroke="white" stroke-width="0.671738" stroke-miterlimit="10"/>
<path d="M143.445 195.133V351.175" stroke="white" stroke-width="0.671738" stroke-miterlimit="10"/>
<path d="M157.484 187.703V343.745" stroke="white" stroke-width="0.671738" stroke-miterlimit="10"/>
<path d="M171.523 180.273V336.316" stroke="white" stroke-width="0.671738" stroke-miterlimit="10"/>
<path d="M185.555 172.836V328.878" stroke="white" stroke-width="0.671738" stroke-miterlimit="10"/>
<path d="M199.594 165.41V321.452" stroke="white" stroke-width="0.671738" stroke-miterlimit="10"/>
<path d="M213.633 157.98V314.023" stroke="white" stroke-width="0.671738" stroke-miterlimit="10"/>
<path d="M227.672 150.547V306.589" stroke="white" stroke-width="0.671738" stroke-miterlimit="10"/>
<path d="M241.703 143.117V299.159" stroke="white" stroke-width="0.671738" stroke-miterlimit="10"/>
<path d="M255.742 135.688V291.73" stroke="white" stroke-width="0.671738" stroke-miterlimit="10"/>
<path d="M269.781 128.258V284.3" stroke="white" stroke-width="0.671738" stroke-miterlimit="10"/>
<path d="M283.82 120.828V276.87" stroke="white" stroke-width="0.671738" stroke-miterlimit="10"/>
<path d="M297.852 113.398V269.441" stroke="white" stroke-width="0.671738" stroke-miterlimit="10"/>
<path d="M311.895 105.961V262.003" stroke="white" stroke-width="0.671738" stroke-miterlimit="10"/>
<path d="M325.93 98.5352V254.577" stroke="white" stroke-width="0.671738" stroke-miterlimit="10"/>
<path d="M339.965 91.1016V247.144" stroke="white" stroke-width="0.671738" stroke-miterlimit="10"/>
<path d="M354.004 83.6719V239.714" stroke="white" stroke-width="0.671738" stroke-miterlimit="10"/>
<path d="M368.039 76.2422V232.284" stroke="white" stroke-width="0.671738" stroke-miterlimit="10"/>
<path d="M382.074 68.8125V224.855" stroke="white" stroke-width="0.671738" stroke-miterlimit="10"/>
<path d="M122.66 250.488V406.53" stroke="white" stroke-width="0.671738" stroke-miterlimit="10"/>
<path d="M136.695 243.055V399.097" stroke="white" stroke-width="0.671738" stroke-miterlimit="10"/>
<path d="M150.734 235.625V391.667" stroke="white" stroke-width="0.671738" stroke-miterlimit="10"/>
<path d="M164.773 228.195V384.237" stroke="white" stroke-width="0.671738" stroke-miterlimit="10"/>
<path d="M178.809 220.766V376.808" stroke="white" stroke-width="0.671738" stroke-miterlimit="10"/>
<path d="M192.844 213.336V369.378" stroke="white" stroke-width="0.671738" stroke-miterlimit="10"/>
<path d="M206.883 205.906V361.948" stroke="white" stroke-width="0.671738" stroke-miterlimit="10"/>
<path d="M220.922 198.473V354.515" stroke="white" stroke-width="0.671738" stroke-miterlimit="10"/>
<path d="M234.961 191.043V347.085" stroke="white" stroke-width="0.671738" stroke-miterlimit="10"/>
<path d="M248.996 183.617V339.659" stroke="white" stroke-width="0.671738" stroke-miterlimit="10"/>
<path d="M263.031 176.18V332.222" stroke="white" stroke-width="0.671738" stroke-miterlimit="10"/>
<path d="M277.07 168.75V324.792" stroke="white" stroke-width="0.671738" stroke-miterlimit="10"/>
<path d="M291.105 161.32V317.363" stroke="white" stroke-width="0.671738" stroke-miterlimit="10"/>
<path d="M305.145 153.887V309.929" stroke="white" stroke-width="0.671738" stroke-miterlimit="10"/>
<path d="M319.18 146.461V302.503" stroke="white" stroke-width="0.671738" stroke-miterlimit="10"/>
<path d="M333.219 139.031V295.073" stroke="white" stroke-width="0.671738" stroke-miterlimit="10"/>
<path d="M347.258 131.602V287.644" stroke="white" stroke-width="0.671738" stroke-miterlimit="10"/>
<path d="M361.293 124.164V280.206" stroke="white" stroke-width="0.671738" stroke-miterlimit="10"/>
<path d="M375.328 116.734V272.777" stroke="white" stroke-width="0.671738" stroke-miterlimit="10"/>
<path d="M389.367 109.305V265.347" stroke="white" stroke-width="0.671738" stroke-miterlimit="10"/>
<path d="M403.398 101.875V257.917" stroke="white" stroke-width="0.671738" stroke-miterlimit="10"/>
<path d="M417.438 94.4453V250.488" stroke="white" stroke-width="0.671738" stroke-miterlimit="10"/>
<path d="M44.7031 194.316V350.359" stroke="white" stroke-width="0.671738" stroke-miterlimit="10"/>
<path d="M58.7422 186.883V342.925" stroke="white" stroke-width="0.671738" stroke-miterlimit="10"/>
<path d="M72.7734 179.453V335.495" stroke="white" stroke-width="0.671738" stroke-miterlimit="10"/>
<path d="M86.8125 172.027V328.07" stroke="white" stroke-width="0.671738" stroke-miterlimit="10"/>
<path d="M100.852 164.594V320.636" stroke="white" stroke-width="0.671738" stroke-miterlimit="10"/>
<path d="M114.891 157.164V313.206" stroke="white" stroke-width="0.671738" stroke-miterlimit="10"/>
<path d="M128.922 149.734V305.777" stroke="white" stroke-width="0.671738" stroke-miterlimit="10"/>
<path d="M142.961 142.297V298.339" stroke="white" stroke-width="0.671738" stroke-miterlimit="10"/>
<path d="M157 134.871V290.913" stroke="white" stroke-width="0.671738" stroke-miterlimit="10"/>
<path d="M171.039 127.441V283.484" stroke="white" stroke-width="0.671738" stroke-miterlimit="10"/>
<path d="M185.078 120.008V276.05" stroke="white" stroke-width="0.671738" stroke-miterlimit="10"/>
<path d="M199.109 112.578V268.62" stroke="white" stroke-width="0.671738" stroke-miterlimit="10"/>
<path d="M213.148 105.148V261.191" stroke="white" stroke-width="0.671738" stroke-miterlimit="10"/>
<path d="M227.188 97.7148V253.757" stroke="white" stroke-width="0.671738" stroke-miterlimit="10"/>
<path d="M241.227 90.2891V246.331" stroke="white" stroke-width="0.671738" stroke-miterlimit="10"/>
<path d="M255.258 82.8594V238.902" stroke="white" stroke-width="0.671738" stroke-miterlimit="10"/>
<path d="M269.301 75.4219V231.464" stroke="white" stroke-width="0.671738" stroke-miterlimit="10"/>
<path d="M283.336 68V224.042" stroke="white" stroke-width="0.671738" stroke-miterlimit="10"/>
<path d="M297.371 60.5625V216.605" stroke="white" stroke-width="0.671738" stroke-miterlimit="10"/>
<path d="M311.41 53.1367V209.179" stroke="white" stroke-width="0.671738" stroke-miterlimit="10"/>
<path d="M325.445 45.7031V201.745" stroke="white" stroke-width="0.671738" stroke-miterlimit="10"/>
<path d="M339.48 38.2734V194.316" stroke="white" stroke-width="0.671738" stroke-miterlimit="10"/>
<path d="M162.711 280.512V436.554" stroke="white" stroke-width="0.671738" stroke-miterlimit="10"/>
<path d="M176.75 273.078V429.12" stroke="white" stroke-width="0.671738" stroke-miterlimit="10"/>
<path d="M190.781 265.648V421.691" stroke="white" stroke-width="0.671738" stroke-miterlimit="10"/>
<path d="M204.82 258.219V414.261" stroke="white" stroke-width="0.671738" stroke-miterlimit="10"/>
<path d="M218.859 250.789V406.831" stroke="white" stroke-width="0.671738" stroke-miterlimit="10"/>
<path d="M232.898 243.359V399.402" stroke="white" stroke-width="0.671738" stroke-miterlimit="10"/>
<path d="M246.938 235.93V391.972" stroke="white" stroke-width="0.671738" stroke-miterlimit="10"/>
<path d="M260.969 228.492V384.534" stroke="white" stroke-width="0.671738" stroke-miterlimit="10"/>
<path d="M275.008 221.066V377.109" stroke="white" stroke-width="0.671738" stroke-miterlimit="10"/>
<path d="M289.047 213.637V369.679" stroke="white" stroke-width="0.671738" stroke-miterlimit="10"/>
<path d="M303.086 206.203V362.245" stroke="white" stroke-width="0.671738" stroke-miterlimit="10"/>
<path d="M317.117 198.773V354.816" stroke="white" stroke-width="0.671738" stroke-miterlimit="10"/>
<path d="M331.156 191.344V347.386" stroke="white" stroke-width="0.671738" stroke-miterlimit="10"/>
<path d="M345.195 183.914V339.956" stroke="white" stroke-width="0.671738" stroke-miterlimit="10"/>
<path d="M359.234 176.484V332.527" stroke="white" stroke-width="0.671738" stroke-miterlimit="10"/>
<path d="M373.266 169.055V325.097" stroke="white" stroke-width="0.671738" stroke-miterlimit="10"/>
<path d="M387.309 161.617V317.659" stroke="white" stroke-width="0.671738" stroke-miterlimit="10"/>
<path d="M401.34 154.191V310.234" stroke="white" stroke-width="0.671738" stroke-miterlimit="10"/>
<path d="M415.379 146.758V302.8" stroke="white" stroke-width="0.671738" stroke-miterlimit="10"/>
<path d="M429.418 139.328V295.37" stroke="white" stroke-width="0.671738" stroke-miterlimit="10"/>
<path d="M443.453 131.898V287.941" stroke="white" stroke-width="0.671738" stroke-miterlimit="10"/>
<path d="M457.488 124.469V280.511" stroke="white" stroke-width="0.671738" stroke-miterlimit="10"/>
<rect x="0.335869" y="157.5" width="22.3774" height="22.3774" fill="#1019EC" stroke="white" stroke-width="0.671738"/>
<circle cx="11.5287" cy="168.689" r="3.63811" fill="white" stroke="#1019EC" stroke-width="0.671738"/>
<rect x="295.351" y="0.335869" width="22.3774" height="22.3774" fill="#1019EC" stroke="white" stroke-width="0.671738"/>
<circle cx="306.544" cy="11.5248" r="3.63811" fill="white" stroke="#1019EC" stroke-width="0.671738"/>
<rect x="151.598" y="273.734" width="22.3774" height="22.3774" fill="#1019EC" stroke="white" stroke-width="0.671738"/>
<circle cx="162.786" cy="284.923" r="3.63811" fill="white" stroke="#1019EC" stroke-width="0.671738"/>
<rect x="446.613" y="116.57" width="22.3774" height="22.3774" fill="#1019EC" stroke="white" stroke-width="0.671738"/>
<circle cx="457.802" cy="127.759" r="3.63811" fill="white" stroke="#1019EC" stroke-width="0.671738"/>
<rect x="0.335869" y="310.68" width="22.3774" height="22.3774" fill="#1019EC" stroke="white" stroke-width="0.671738"/>
<circle cx="11.5287" cy="321.868" r="3.63811" fill="white" stroke="#1019EC" stroke-width="0.671738"/>
<rect x="295.351" y="153.516" width="22.3774" height="22.3774" fill="#1019EC" stroke="white" stroke-width="0.671738"/>
<circle cx="306.544" cy="164.704" r="3.63811" fill="white" stroke="#1019EC" stroke-width="0.671738"/>
<rect x="151.598" y="426.914" width="22.3774" height="22.3774" fill="#1019EC" stroke="white" stroke-width="0.671738"/>
<circle cx="162.786" cy="438.103" r="3.63811" fill="white" stroke="#1019EC" stroke-width="0.671738"/>
<rect x="446.613" y="269.754" width="22.3774" height="22.3774" fill="#1019EC" stroke="white" stroke-width="0.671738"/>
<circle cx="457.802" cy="280.943" r="3.63811" fill="white" stroke="#1019EC" stroke-width="0.671738"/>
</svg>
