<svg width="17" height="17" viewBox="0 0 17 17" fill="none" xmlns="http://www.w3.org/2000/svg">
<g clipPath="url(#clip0_443_6758)">
<path d="M8.87498 2.06256C11.0111 2.06256 11.2641 2.07069 12.1077 2.10918C12.8876 2.14478 13.3112 2.27511 13.5932 2.38463C13.9666 2.52976 14.2331 2.70315 14.513 2.98308C14.7929 3.26301 14.9663 3.52953 15.1114 3.90292C15.221 4.18485 15.3513 4.60845 15.3869 5.38841C15.4254 6.23201 15.4335 6.48501 15.4335 8.62111C15.4335 10.7572 15.4254 11.0102 15.3869 11.8538C15.3513 12.6338 15.221 13.0574 15.1114 13.3393C14.9663 13.7127 14.7929 13.9792 14.513 14.2591C14.2331 14.5391 13.9666 14.7125 13.5932 14.8576C13.3112 14.9671 12.8876 15.0974 12.1077 15.133C11.2642 15.1715 11.0112 15.1797 8.87498 15.1797C6.73875 15.1797 6.48575 15.1715 5.64231 15.133C4.86232 15.0974 4.43873 14.9671 4.15683 14.8576C3.78341 14.7125 3.51688 14.5391 3.23695 14.2591C2.95702 13.9792 2.78363 13.7127 2.63854 13.3393C2.52898 13.0574 2.39866 12.6338 2.36306 11.8538C2.32457 11.0102 2.31644 10.7572 2.31644 8.62111C2.31644 6.48501 2.32457 6.23201 2.36306 5.38844C2.39866 4.60845 2.52898 4.18485 2.63854 3.90292C2.78363 3.52953 2.95702 3.26301 3.23695 2.98308C3.51688 2.70315 3.78341 2.52976 4.15683 2.38463C4.43873 2.27511 4.86232 2.14478 5.64228 2.10918C6.48588 2.07069 6.73888 2.06256 8.87498 2.06256ZM8.87498 0.621094C6.7023 0.621094 6.4299 0.630303 5.57661 0.669236C4.72507 0.708105 4.14355 0.843323 3.63466 1.0411C3.10859 1.24554 2.66245 1.51909 2.21771 1.96383C1.77297 2.40858 1.49942 2.85472 1.29497 3.38079C1.0972 3.88968 0.96198 4.4712 0.92311 5.32274C0.884177 6.17599 0.875 6.44842 0.875 8.62111C0.875 10.7938 0.884177 11.0662 0.92311 11.9195C0.96198 12.771 1.0972 13.3525 1.29497 13.8614C1.49942 14.3875 1.77297 14.8336 2.21771 15.2784C2.66245 15.7231 3.10859 15.9967 3.63466 16.2011C4.14355 16.3989 4.72507 16.5341 5.57661 16.573C6.4299 16.6119 6.7023 16.6211 8.87498 16.6211C11.0477 16.6211 11.3201 16.6119 12.1734 16.573C13.0249 16.5341 13.6064 16.3989 14.1153 16.2011C14.6414 15.9967 15.0875 15.7231 15.5323 15.2784C15.977 14.8336 16.2505 14.3875 16.455 13.8614C16.6528 13.3525 16.788 12.771 16.8269 11.9195C16.8658 11.0662 16.875 10.7938 16.875 8.62111C16.875 6.44842 16.8658 6.17599 16.8269 5.32274C16.788 4.4712 16.6528 3.88968 16.455 3.38079C16.2505 2.85472 15.977 2.40858 15.5323 1.96383C15.0875 1.51909 14.6414 1.24554 14.1153 1.0411C13.6064 0.843323 13.0249 0.708105 12.1734 0.669236C11.3201 0.630303 11.0477 0.621094 8.87498 0.621094ZM8.87498 4.51299C6.60614 4.51299 4.76686 6.35227 4.76686 8.62111C4.76686 10.89 6.60614 12.7292 8.87498 12.7292C11.1438 12.7292 12.9831 10.89 12.9831 8.62111C12.9831 6.35227 11.1438 4.51299 8.87498 4.51299ZM8.87498 11.2878C7.40223 11.2878 6.2083 10.0939 6.2083 8.62111C6.2083 7.14836 7.40223 5.95443 8.87498 5.95443C10.3477 5.95443 11.5417 7.14836 11.5417 8.62111C11.5417 10.0939 10.3477 11.2878 8.87498 11.2878ZM14.1054 4.35068C14.1054 4.88088 13.6756 5.3107 13.1454 5.3107C12.6152 5.3107 12.1854 4.88088 12.1854 4.35068C12.1854 3.82048 12.6152 3.3907 13.1454 3.3907C13.6756 3.3907 14.1054 3.82048 14.1054 4.35068Z" fill="#18181B"/>
</g>
<defs>
<clipPath id="clip0_443_6758">
<rect width="16" height="16" fill="white" transform="translate(0.875 0.621094)"/>
</clipPath>
</defs>
</svg>
